<svg id="Capa_1" enable-background="new 0 0 512 512" height="512" viewBox="0 0 512 512" width="512" xmlns="http://www.w3.org/2000/svg"><g><path d="m395 476h-100c-8.284 0-15-6.716-15-15v-40c0-2.885.832-5.708 2.396-8.132l12.638-19.589-14.072-11.2c-.332 4.602-2.769 8.82-6.641 11.402l-30 20c-2.464 1.643-5.359 2.519-8.32 2.519h-111.001c-6.849 0-12.829-4.64-14.53-11.274l-7.78-30.341-31.328-7.832c-6.677-1.67-11.362-7.67-11.362-14.553v-29.188l-19.743-6.582c-5.257-1.752-9.12-6.26-10.046-11.723l-10-59c-.797-4.705.691-9.509 4.01-12.938l19.738-20.396-39.565-39.567c-2.813-2.813-4.394-6.628-4.394-10.606v-70c0-6.386 4.043-12.072 10.075-14.168s12.73-.144 16.691 4.865l31.8 40.218 65.997 30.855 21.921-15.118c2.504-1.727 5.474-2.652 8.516-2.652h15v-15c0-3.913 1.529-7.67 4.26-10.472l39-40c2.823-2.895 6.696-4.528 10.74-4.528h21.913c7.585-11.943 24.735-30 59.087-30 27.917 0 48.274 19.398 57.315 30h22.685c5.015 0 9.699 2.506 12.481 6.68l15.547 23.32h21.972c2.961 0 5.856.876 8.32 2.519l30 20c4.173 2.782 6.68 7.466 6.68 12.481v40c0 5.015-2.506 9.699-6.68 12.481l-23.32 15.547v10.261l28.638 7.159c2.403.601 4.619 1.787 6.452 3.453l22 20c3.127 2.843 4.91 6.873 4.91 11.099v60c0 4.146-1.716 8.107-4.741 10.943l-27.259 25.556v33.501c0 5.015-2.506 9.699-6.68 12.481l-25.175 16.783-8.593 34.374c-.905 3.62-3.127 6.773-6.232 8.843l-30 20c-2.464 1.643-5.359 2.519-8.32 2.519z"/></g></svg>