<svg id="Слой_1" data-name="Слой 1" xmlns="http://www.w3.org/2000/svg" viewBox="0 0 15.17 15.16"><defs><style>.cls-1{fill:#1d3759;}</style></defs><path class="cls-1" d="M8.5,16.08a7.58,7.58,0,0,1-1.67-15,7.64,7.64,0,0,1,4.76.47.5.5,0,0,1-.41.91A6.56,6.56,0,0,0,3.5,4.22,6.56,6.56,0,0,0,3,12.08a6.59,6.59,0,0,0,7.39,2.73A6.58,6.58,0,0,0,15.08,8.5V7.85a.5.5,0,0,1,.5-.5.5.5,0,0,1,.5.5V8.5a7.58,7.58,0,0,1-5.43,7.27A7.82,7.82,0,0,1,8.5,16.08Z" transform="translate(-0.92 -0.92)"/><path class="cls-1" d="M8.5,10.42a.5.5,0,0,1-.35-.14L6,8.15a.5.5,0,0,1,0-.7.5.5,0,0,1,.71,0L8.5,9.22l6.73-6.74a.5.5,0,0,1,.71,0,.51.51,0,0,1,0,.71L8.85,10.28A.5.5,0,0,1,8.5,10.42Z" transform="translate(-0.92 -0.92)"/></svg>