<svg id="Слой_1" data-name="Слой 1" xmlns="http://www.w3.org/2000/svg" viewBox="0 0 13 13"><defs><style>.cls-1{opacity:0.5;}.cls-2{fill:#1d3759;}</style></defs><g class="cls-1"><path class="cls-2" d="M5.5,17.5a1,1,0,0,1-.71-.29,1,1,0,0,1,0-1.42l11-11a1,1,0,1,1,1.42,1.42l-11,11A1,1,0,0,1,5.5,17.5Z" transform="translate(-4.5 -4.5)"/></g><g class="cls-1"><path class="cls-2" d="M16.5,17.5a1,1,0,0,1-.71-.29l-11-11A1,1,0,0,1,6.21,4.79l11,11a1,1,0,0,1,0,1.42A1,1,0,0,1,16.5,17.5Z" transform="translate(-4.5 -4.5)"/></g></svg>