<svg id="Слой_1" data-name="Слой 1" xmlns="http://www.w3.org/2000/svg" viewBox="0 0 18.33 20.67"><defs><style>.cls-1{fill:#1d3759;}</style></defs><path class="cls-1" d="M14,24.33A3.33,3.33,0,1,1,17.33,21,3.33,3.33,0,0,1,14,24.33Zm0-4.66A1.33,1.33,0,1,0,15.33,21,1.32,1.32,0,0,0,14,19.67Z" transform="translate(-4.83 -3.67)"/><path class="cls-1" d="M22.17,15H5.83a1,1,0,1,1,0-2H22.17a1,1,0,0,1,0,2Z" transform="translate(-4.83 -3.67)"/><path class="cls-1" d="M14,10.33A3.33,3.33,0,1,1,17.33,7,3.33,3.33,0,0,1,14,10.33Zm0-4.66A1.33,1.33,0,1,0,15.33,7,1.32,1.32,0,0,0,14,5.67Z" transform="translate(-4.83 -3.67)"/></svg>