<svg id="Слой_1" data-name="Слой 1" xmlns="http://www.w3.org/2000/svg" viewBox="0 0 17.75 19.02"><defs><style>.cls-1{fill:#1d3759;}</style></defs><path class="cls-1" d="M13.33,19.08a.75.75,0,0,1-.75-.75V15.11a2.1,2.1,0,0,0-.11-.92,1.93,1.93,0,0,0-.46-.73.77.77,0,0,1-.17-.78.75.75,0,0,1,.63-.49c2.44-.27,4.7-1.08,4.7-5.09a3.76,3.76,0,0,0-1.05-2.61A.77.77,0,0,1,16,3.71a3.42,3.42,0,0,0,.1-2.12,6.78,6.78,0,0,0-2.31,1.1.73.73,0,0,1-.61.1,10.46,10.46,0,0,0-5.44,0,.75.75,0,0,1-.62-.1,6.74,6.74,0,0,0-2.31-1.1,3.42,3.42,0,0,0,.1,2.12.75.75,0,0,1-.16.78,3.74,3.74,0,0,0-1,2.63c0,4,2.26,4.79,4.71,5.09a.75.75,0,0,1,.61.5.73.73,0,0,1-.17.77,2.1,2.1,0,0,0-.57,1.58v3.27a.75.75,0,0,1-1.5,0V16.78a4.06,4.06,0,0,1-4.33-1.85c-.33-.43-.62-.79-.94-.87a.75.75,0,0,1-.54-.91.74.74,0,0,1,.91-.54A3.35,3.35,0,0,1,3.6,14a2.63,2.63,0,0,0,3.15,1.25v-.14A3.58,3.58,0,0,1,7,13.69L7,13.51C4.68,13,2.17,11.6,2.17,7.12A5.25,5.25,0,0,1,3.32,3.8,5,5,0,0,1,3.55.54.76.76,0,0,1,4,.11c.21-.06,1.35-.29,3.6,1.15a11.92,11.92,0,0,1,5.57,0C15.46-.18,16.59.05,16.81.11a.77.77,0,0,1,.47.43,4.94,4.94,0,0,1,.23,3.26,5.27,5.27,0,0,1,1.16,3.3c0,4.52-2.51,5.91-4.86,6.4l.07.18a3.59,3.59,0,0,1,.2,1.49v3.16A.74.74,0,0,1,13.33,19.08Z" transform="translate(-0.92 -0.06)"/></svg>