<svg id="Слой_1" data-name="Слой 1" xmlns="http://www.w3.org/2000/svg" viewBox="0 0 19.85 18.36"><defs><style>.cls-1{fill:#1d3759;}</style></defs><path class="cls-1" d="M10,19.19a.79.79,0,0,1-.44-.14L.68,12.6A1.47,1.47,0,0,1,.16,11l3.05-9.4a1.31,1.31,0,0,1,.3-.46,1.15,1.15,0,0,1,1.5,0,1.21,1.21,0,0,1,.3.49L7.17,7.31h5.66L14.7,1.57A1.25,1.25,0,0,1,15,1.11a1.15,1.15,0,0,1,1.5,0,1.06,1.06,0,0,1,.3.49L19.88,11a1.5,1.5,0,0,1,0,.94,1.46,1.46,0,0,1-.55.7l-8.86,6.44A.79.79,0,0,1,10,19.19Zm-5.74-16L1.59,11.44,10,17.52l8.43-6.13h0l-1-3.06L15.74,3.21,14.09,8.29a.75.75,0,0,1-.71.52H6.62a.75.75,0,0,1-.71-.52ZM3.88,2.05h0Zm11.48,0h0Z" transform="translate(-0.09 -0.83)"/></svg>