<svg id="Слой_1" data-name="Слой 1" xmlns="http://www.w3.org/2000/svg" viewBox="0 0 18.17 18.17"><defs><style>.cls-1{fill:#1d3759;}</style></defs><path class="cls-1" d="M10,19.08A9.08,9.08,0,1,1,19.08,10,9.09,9.09,0,0,1,10,19.08ZM10,2.42A7.58,7.58,0,1,0,17.58,10,7.59,7.59,0,0,0,10,2.42Z" transform="translate(-0.92 -0.92)"/><path class="cls-1" d="M18.33,10.75H1.67a.75.75,0,0,1,0-1.5H18.33a.75.75,0,0,1,0,1.5Z" transform="translate(-0.92 -0.92)"/><path class="cls-1" d="M10,19.08a.76.76,0,0,1-.55-.24A13.5,13.5,0,0,1,5.92,10,13.52,13.52,0,0,1,9.45,1.16a.77.77,0,0,1,1.1,0A13.45,13.45,0,0,1,14.08,10a13.47,13.47,0,0,1-3.53,8.86A.76.76,0,0,1,10,19.08ZM10,2.82A12,12,0,0,0,7.42,10,11.94,11.94,0,0,0,10,17.18,12,12,0,0,0,12.58,10,11.94,11.94,0,0,0,10,2.82Z" transform="translate(-0.92 -0.92)"/></svg>