<svg id="Слой_1" data-name="Слой 1" xmlns="http://www.w3.org/2000/svg" viewBox="0 0 16.5 16.5"><defs><style>.cls-1{fill:#1d3759;}</style></defs><path class="cls-1" d="M18,15.75a.76.76,0,0,1-.75-.75V10A6.75,6.75,0,0,0,5.73,5.23a6.68,6.68,0,0,0-2,4.77v5a.75.75,0,0,1-1.5,0V10A8.24,8.24,0,0,1,16.33,4.17,8.18,8.18,0,0,1,18.75,10v5A.76.76,0,0,1,18,15.75Z" transform="translate(-2.25 -1.75)"/><path class="cls-1" d="M16.33,18.25H15.5a2.42,2.42,0,0,1-2.42-2.42v-2.5a2.47,2.47,0,0,1,.71-1.71,2.42,2.42,0,0,1,1.71-.7H18a.75.75,0,0,1,.75.75v4.16a2.42,2.42,0,0,1-2.42,2.42Zm-.83-5.83a.88.88,0,0,0-.65.27.91.91,0,0,0-.27.64v2.5a.92.92,0,0,0,.92.92h.83a.92.92,0,0,0,.92-.92V12.42Zm-10,5.83H4.67a2.42,2.42,0,0,1-2.42-2.42V11.67A.75.75,0,0,1,3,10.92H5.5a2.41,2.41,0,0,1,2.42,2.41v2.5A2.42,2.42,0,0,1,5.5,18.25ZM3.75,12.42v3.41a.92.92,0,0,0,.92.92H5.5a.93.93,0,0,0,.65-.27.91.91,0,0,0,.27-.65v-2.5a.91.91,0,0,0-.27-.64.89.89,0,0,0-.65-.27Z" transform="translate(-2.25 -1.75)"/></svg>