<svg id="Слой_1" data-name="Слой 1" xmlns="http://www.w3.org/2000/svg" viewBox="0 0 18.11 17.35"><defs><style>.cls-1{fill:#1d3759;}</style></defs><path class="cls-1" d="M6.28,18.27h0a5.14,5.14,0,0,1-2-.42,5,5,0,0,1-1.73-1.17A5.28,5.28,0,0,1,1,12.93,5.34,5.34,0,0,1,9.45,8.66l2.94-2.94h0L17,1.14a.74.74,0,0,1,1.06,0,.73.73,0,0,1,.22.53A.74.74,0,0,1,18,2.2L16.89,3.33l2,2a.75.75,0,0,1,0,1.06L16,9.28a.75.75,0,0,1-1.06,0l-2-2-2.4,2.4a5.32,5.32,0,0,1,.67,1.16,5.52,5.52,0,0,1,.42,2.05A5.39,5.39,0,0,1,10,16.71a5.21,5.21,0,0,1-1.73,1.16A5.44,5.44,0,0,1,6.28,18.27Zm0-9.13h0a3.81,3.81,0,0,0-1.48,7.33,3.72,3.72,0,0,0,1.47.3,3.42,3.42,0,0,0,1.47-.29A3.74,3.74,0,0,0,9,15.65a3.81,3.81,0,0,0,1.13-2.73,4.15,4.15,0,0,0-.3-1.47A4,4,0,0,0,9,10.21,3.82,3.82,0,0,0,6.31,9.14ZM14,6.25l1.44,1.44,1.85-1.86L15.83,4.39Z" transform="translate(-0.97 -0.92)"/></svg>