<svg id="Слой_1" data-name="Слой 1" xmlns="http://www.w3.org/2000/svg" viewBox="0 0 17.7 18.68"><defs><style>.cls-1{fill:#1d3759;}</style></defs><path class="cls-1" d="M7,19.34A5.75,5.75,0,0,1,2.94,9.52l7.65-7.66a4.08,4.08,0,0,1,5.78,0,4.08,4.08,0,0,1,0,5.78L8.7,15.29a2.46,2.46,0,0,1-3.42,0,2.43,2.43,0,0,1,0-3.41l7.08-7.07a.75.75,0,1,1,1.06,1.06L6.35,12.94a.91.91,0,0,0,0,1.29.92.92,0,0,0,1.29,0l7.67-7.65a2.63,2.63,0,0,0,.76-1.83,2.57,2.57,0,0,0-.76-1.83,2.69,2.69,0,0,0-3.66,0L4,10.58a4.26,4.26,0,0,0,3,7.26,4.2,4.2,0,0,0,3-1.25l7.66-7.66A.75.75,0,1,1,18.73,10l-7.66,7.66A5.71,5.71,0,0,1,7,19.34Z" transform="translate(-1.25 -0.66)"/></svg>