<svg id="Слой_1" data-name="Слой 1" xmlns="http://www.w3.org/2000/svg" viewBox="0 0 18.17 16.5"><defs><style>.cls-1{fill:#1d3759;}</style></defs><path class="cls-1" d="M10.33,18.75a9.08,9.08,0,0,1-6.42-2.66A9,9,0,0,1,1.25,9.67v-5A2.42,2.42,0,0,1,3.67,2.25H17a2.42,2.42,0,0,1,2.42,2.42v5a9.08,9.08,0,0,1-9.09,9.08Zm-6.66-15a.92.92,0,0,0-.92.92v5a7.57,7.57,0,0,0,4.68,7,7.43,7.43,0,0,0,2.9.58,7.58,7.58,0,0,0,7.59-7.58v-5A.92.92,0,0,0,17,3.75Z" transform="translate(-1.25 -2.25)"/><path class="cls-1" d="M10.33,12.92a.75.75,0,0,1-.53-.22L6.47,9.36A.75.75,0,0,1,7.53,8.3l2.8,2.81L13.14,8.3A.75.75,0,0,1,14.2,9.36L10.86,12.7A.75.75,0,0,1,10.33,12.92Z" transform="translate(-1.25 -2.25)"/></svg>