<svg id="Слой_1" data-name="Слой 1" xmlns="http://www.w3.org/2000/svg" viewBox="0 0 20 20"><defs><style>.cls-1{fill:#fff;}</style></defs><path class="cls-1" d="M11,20a9,9,0,1,1,9-9A9,9,0,0,1,11,20ZM11,4a7,7,0,1,0,7,7A7,7,0,0,0,11,4Z" transform="translate(-2 -2)"/><path class="cls-1" d="M21,22a1,1,0,0,1-.71-.29l-4.35-4.35a1,1,0,1,1,1.42-1.42l4.35,4.35a1,1,0,0,1,0,1.42A1,1,0,0,1,21,22Z" transform="translate(-2 -2)"/><path class="cls-1" d="M11,15a1,1,0,0,1-1-1V8a1,1,0,0,1,2,0v6A1,1,0,0,1,11,15Z" transform="translate(-2 -2)"/><path class="cls-1" d="M14,12H8a1,1,0,0,1,0-2h6a1,1,0,0,1,0,2Z" transform="translate(-2 -2)"/></svg>